<?xml version="1.0" encoding="UTF-8"?>
<!DOCTYPE svg PUBLIC "-//W3C//DTD SVG 1.1//EN" "http://www.w3.org/Graphics/SVG/1.1/DTD/svg11.dtd">
<svg xmlns="http://www.w3.org/2000/svg" version="1.1" width="192px" height="192px" style="shape-rendering:geometricPrecision; text-rendering:geometricPrecision; image-rendering:optimizeQuality; fill-rule:evenodd; clip-rule:evenodd" xmlns:xlink="http://www.w3.org/1999/xlink">
<g><path style="opacity:0.053" fill="#000001" d="M 116.5,191.5 C 102.5,191.5 88.5,191.5 74.5,191.5C 33.1056,179.935 8.60562,152.935 1,110.5C -2.27859,70.5621 12.5547,39.3955 45.5,17C 77.1726,-0.208899 109.173,-0.875566 141.5,15C 181.525,40.5697 196.692,76.7363 187,123.5C 178.475,151.689 160.975,172.189 134.5,185C 128.429,187.299 122.429,189.465 116.5,191.5 Z"/></g>
<g><path style="opacity:1" fill="#4ea5ea" d="M 148.5,25.5 C 106.245,-0.305826 66.9122,3.36084 30.5,36.5C 44.03,20.5587 61.3633,11.0587 82.5,8C 102.274,5.29535 120.941,8.62869 138.5,18C 142.3,19.9789 145.634,22.4789 148.5,25.5 Z"/></g>
<g><path style="opacity:1" fill="#2d9bf3" d="M 148.5,25.5 C 150.749,26.0798 152.415,27.4131 153.5,29.5C 151.897,28.3228 150.564,28.4894 149.5,30C 149.833,30.3333 150.167,30.6667 150.5,31C 147.456,31.3589 147.122,32.0255 149.5,33C 146.833,33.6667 146.833,34.3333 149.5,35C 148.833,35.3333 148.167,35.6667 147.5,36C 147.833,37 148.167,38 148.5,39C 145.456,39.3589 145.122,40.0255 147.5,41C 144.833,41.6667 144.833,42.3333 147.5,43C 143.148,43.4189 142.815,44.0855 146.5,45C 145.833,46.3333 144.833,47.3333 143.5,48C 146.167,48.6667 146.167,49.3333 143.5,50C 143.833,50.3333 144.167,50.6667 144.5,51C 143.5,51.3333 142.5,51.6667 141.5,52C 143.997,54.2597 143.33,55.593 139.5,56C 143.5,56.6667 143.5,57.3333 139.5,58C 142.167,58.6667 142.167,59.3333 139.5,60C 140.598,60.7697 140.598,61.603 139.5,62.5C 136.495,61.2763 133.495,61.2763 130.5,62.5C 123.904,55.569 115.904,51.2357 106.5,49.5C 104.605,40.8003 99.2712,37.6336 90.5,40C 87.5922,42.4033 85.2589,45.2367 83.5,48.5C 74.8203,51.5152 67.1536,56.1819 60.5,62.5C 49.1698,60.9984 44.3364,65.9984 46,77.5C 46.7845,79.286 47.9512,80.786 49.5,82C 46.8538,90.4554 46.8538,98.9554 49.5,107.5C 48.5705,109.606 47.4038,111.606 46,113.5C 44.3364,125.002 49.1698,130.002 60.5,128.5C 64.1911,130.649 66.3578,133.649 67,137.5C 66.0656,138.858 65.2323,140.192 64.5,141.5C 63.8478,140.275 62.6811,139.608 61,139.5C 59.8333,139.667 58.6667,139.833 57.5,140C 58.1667,140.333 58.8333,140.667 59.5,141C 55.7661,142.825 51.7661,143.825 47.5,144C 48.1667,144.333 48.8333,144.667 49.5,145C 43.6142,146.648 37.6142,147.648 31.5,148C 32.8333,148.333 34.1667,148.667 35.5,149C 32.3248,148.947 29.6581,149.78 27.5,151.5C 6.63411,124.979 1.80078,95.6456 13,63.5C 16.8529,53.1046 22.6863,44.1046 30.5,36.5C 66.9122,3.36084 106.245,-0.305826 148.5,25.5 Z"/></g>
<g><path style="opacity:1" fill="#2495f1" d="M 153.5,29.5 C 173.681,46.6485 183.681,68.6485 183.5,95.5C 181.665,134.49 162.998,161.99 127.5,178C 121.031,180.451 114.365,181.951 107.5,182.5C 96.0871,182.8 84.7538,182.133 73.5,180.5C 54.9784,175.905 39.6451,166.238 27.5,151.5C 29.6581,149.78 32.3248,148.947 35.5,149C 34.1667,148.667 32.8333,148.333 31.5,148C 37.6142,147.648 43.6142,146.648 49.5,145C 48.8333,144.667 48.1667,144.333 47.5,144C 51.7661,143.825 55.7661,142.825 59.5,141C 58.8333,140.667 58.1667,140.333 57.5,140C 58.6667,139.833 59.8333,139.667 61,139.5C 62.6811,139.608 63.8478,140.275 64.5,141.5C 63.0991,144.704 62.0991,148.037 61.5,151.5C 64.8984,151.82 68.2317,151.487 71.5,150.5C 72.8061,146.554 74.6394,142.888 77,139.5C 79.456,140.574 81.956,141.574 84.5,142.5C 86.7395,150.244 91.7395,153.078 99.5,151C 103.123,149.212 105.456,146.379 106.5,142.5C 108.894,141.651 111.227,140.651 113.5,139.5C 115.968,143.057 117.968,146.89 119.5,151C 122.882,151.824 126.216,151.657 129.5,150.5C 126.756,145.374 124.922,140.041 124,134.5C 126.016,132.316 128.183,130.316 130.5,128.5C 141.862,129.97 146.696,124.97 145,113.5C 143.596,111.606 142.43,109.606 141.5,107.5C 143.66,99.9126 143.993,92.2459 142.5,84.5C 143.907,80.8286 144.907,76.9952 145.5,73C 145.676,68.1769 143.676,64.6769 139.5,62.5C 140.598,61.603 140.598,60.7697 139.5,60C 142.167,59.3333 142.167,58.6667 139.5,58C 143.5,57.3333 143.5,56.6667 139.5,56C 143.33,55.593 143.997,54.2597 141.5,52C 142.5,51.6667 143.5,51.3333 144.5,51C 144.167,50.6667 143.833,50.3333 143.5,50C 146.167,49.3333 146.167,48.6667 143.5,48C 144.833,47.3333 145.833,46.3333 146.5,45C 142.815,44.0855 143.148,43.4189 147.5,43C 144.833,42.3333 144.833,41.6667 147.5,41C 145.122,40.0255 145.456,39.3589 148.5,39C 148.167,38 147.833,37 147.5,36C 148.167,35.6667 148.833,35.3333 149.5,35C 146.833,34.3333 146.833,33.6667 149.5,33C 147.122,32.0255 147.456,31.3589 150.5,31C 150.167,30.6667 149.833,30.3333 149.5,30C 150.564,28.4894 151.897,28.3228 153.5,29.5 Z"/></g>
<g><path style="opacity:1" fill="#fbfdfe" d="M 139.5,62.5 C 143.676,64.6769 145.676,68.1769 145.5,73C 144.907,76.9952 143.907,80.8286 142.5,84.5C 143.993,92.2459 143.66,99.9126 141.5,107.5C 142.43,109.606 143.596,111.606 145,113.5C 146.696,124.97 141.862,129.97 130.5,128.5C 128.183,130.316 126.016,132.316 124,134.5C 124.922,140.041 126.756,145.374 129.5,150.5C 126.216,151.657 122.882,151.824 119.5,151C 117.968,146.89 115.968,143.057 113.5,139.5C 111.227,140.651 108.894,141.651 106.5,142.5C 105.456,146.379 103.123,149.212 99.5,151C 91.7395,153.078 86.7395,150.244 84.5,142.5C 81.956,141.574 79.456,140.574 77,139.5C 74.6394,142.888 72.8061,146.554 71.5,150.5C 68.2317,151.487 64.8984,151.82 61.5,151.5C 62.0991,148.037 63.0991,144.704 64.5,141.5C 65.2323,140.192 66.0656,138.858 67,137.5C 66.3578,133.649 64.1911,130.649 60.5,128.5C 49.1698,130.002 44.3364,125.002 46,113.5C 47.4038,111.606 48.5705,109.606 49.5,107.5C 46.8538,98.9554 46.8538,90.4554 49.5,82C 47.9512,80.786 46.7845,79.286 46,77.5C 44.3364,65.9984 49.1698,60.9984 60.5,62.5C 67.1536,56.1819 74.8203,51.5152 83.5,48.5C 85.2589,45.2367 87.5922,42.4033 90.5,40C 99.2712,37.6336 104.605,40.8003 106.5,49.5C 115.904,51.2357 123.904,55.569 130.5,62.5C 133.495,61.2763 136.495,61.2763 139.5,62.5 Z"/></g>
<g><path style="opacity:1" fill="#2e9bf3" d="M 81.5,56.5 C 85.4783,55.9656 88.4783,57.4656 90.5,61C 96.1519,62.6539 100.819,61.3205 104.5,57C 112.162,57.5798 118.662,60.7464 124,66.5C 122.491,72.2674 123.657,77.4341 127.5,82C 134.267,83.4074 136.933,87.5741 135.5,94.5C 135.518,97.9238 135.018,101.257 134,104.5C 131.551,106.732 128.884,108.732 126,110.5C 123.989,114.567 122.989,118.9 123,123.5C 121.757,125.833 120.091,126.5 118,125.5C 115.896,119.462 113.396,113.629 110.5,108C 117.594,98.4569 116.928,89.4569 108.5,81C 96.6137,73.7534 86.4471,75.5867 78,86.5C 74.8637,94.0045 75.3637,101.338 79.5,108.5C 76.8483,114.473 74.1816,120.473 71.5,126.5C 67.4313,124.683 66.098,121.85 67.5,118C 66.8975,111.398 63.3975,107.231 57,105.5C 55.456,98.9161 55.1227,92.2494 56,85.5C 65.6047,82.6258 69.2713,76.2924 67,66.5C 71.2907,62.28 76.1241,58.9467 81.5,56.5 Z"/></g>
<g><path style="opacity:1" fill="#309bf3" d="M 87.5,113.5 C 92.9144,114.473 98.2478,114.806 103.5,114.5C 105.81,120.284 107.976,125.951 110,131.5C 106.833,133.746 104,133.58 101.5,131C 95.9295,128.595 90.9295,129.428 86.5,133.5C 84.8849,132.846 83.2182,132.346 81.5,132C 81.0426,131.586 80.7093,131.086 80.5,130.5C 83.0437,124.856 85.377,119.189 87.5,113.5 Z"/></g>
<g><path style="opacity:1" fill="#1871b7" d="M 73.5,180.5 C 84.7538,182.133 96.0871,182.8 107.5,182.5C 99.3437,183.657 91.0104,183.823 82.5,183C 79.2578,182.594 76.2578,181.761 73.5,180.5 Z"/></g>
</svg>
